<svg width="116" height="117" viewBox="0 0 116 117" fill="none" xmlns="http://www.w3.org/2000/svg">
<path fill-rule="evenodd" clip-rule="evenodd" d="M29.4785 29.2504H86.5167C102.776 29.2504 116 42.3739 116 58.5004C116 74.6269 102.776 87.7504 86.5215 87.7504H29.4833C13.224 87.7504 0 74.6269 0 58.5004C0 42.3739 13.224 29.2504 29.4785 29.2504ZM55.6703 74.5879C56.3857 75.3386 57.4442 75.2996 58.3818 75.1046L58.3915 75.1095C58.8265 74.7585 58.2078 74.3149 57.6182 73.8907C57.2605 73.6372 56.9173 73.3935 56.8158 73.1741C57.1445 72.7841 56.173 71.8822 55.419 71.1851C55.1611 70.9618 54.9188 70.7207 54.694 70.4636C54.1623 69.8835 53.9448 69.1571 53.7273 68.4259C53.5823 67.9384 53.4373 67.4509 53.1957 67.0024C51.7263 63.6191 50.0395 60.2602 47.6712 57.3986C46.1487 55.4974 44.4135 53.7911 42.6783 52.0849C41.5504 50.9948 40.4497 49.8765 39.3772 48.7309C38.2848 47.6145 37.6275 46.2397 36.9653 44.8601C36.4143 43.7096 35.8633 42.5542 35.0513 41.5451C32.6008 37.962 24.8675 36.9821 23.7317 42.0521C23.7317 42.2081 23.6833 42.3056 23.5432 42.408C22.9148 42.8662 22.359 43.383 21.8902 44.0021C20.7398 45.5914 20.5658 48.2775 21.9965 49.7059L22.0013 49.6132C22.0497 48.8966 22.098 48.219 22.6732 47.7071C23.7752 48.648 25.4572 48.9844 26.738 48.2775C28.2847 50.4712 28.7777 53.1281 29.2755 55.785C29.6863 58.008 30.0972 60.231 31.1218 62.2005L31.1895 62.3077C31.7888 63.2974 32.3978 64.3065 33.1712 65.1694C33.4563 65.6032 34.0315 66.0664 34.6067 66.5295C35.3655 67.1389 36.1243 67.7482 36.1968 68.2796V68.9767C36.192 70.3661 36.1872 71.8042 37.0862 72.9401C37.584 73.9395 36.3612 74.9389 35.3848 74.817C34.8435 74.8901 34.2587 74.7487 33.6738 74.6122C32.8763 74.4172 32.0837 74.232 31.4408 74.5976C31.2572 74.7926 31.001 74.7926 30.74 74.8024C30.4307 74.8121 30.1165 74.8219 29.9328 75.1436C29.8942 75.2362 29.8072 75.3386 29.7153 75.4507C29.5123 75.6945 29.2948 75.9626 29.5558 76.1625L29.6283 76.1137C30.0247 75.8115 30.4017 75.5287 30.9333 75.7042C30.8657 76.0942 31.1218 76.2015 31.378 76.3039L31.5085 76.3624C31.5031 76.4543 31.4901 76.5456 31.4698 76.6354C31.4263 76.8547 31.3877 77.0644 31.5568 77.2545C31.636 77.1713 31.7103 77.0834 31.7792 76.9912C31.958 76.767 32.132 76.5427 32.451 76.455C33.147 77.3812 33.8478 76.9961 34.7275 76.5184C35.7232 75.9772 36.946 75.3094 38.6425 76.2502C37.99 76.221 37.41 76.299 36.975 76.8352C36.8638 76.9522 36.772 77.0887 36.9653 77.2447C37.9658 76.6012 38.3863 76.8304 38.7778 77.0497C39.0678 77.2057 39.3337 77.3569 39.8025 77.1667L40.1408 76.9912C40.89 76.5866 41.6585 76.182 42.5527 76.3234C41.8808 76.5135 41.644 76.9327 41.383 77.3861C41.2573 77.6152 41.122 77.8492 40.9287 78.0686C40.8272 78.171 40.7837 78.2929 40.8948 78.4586C42.2965 78.3465 42.8282 77.9955 43.5435 77.5226C43.8818 77.2984 44.2685 77.04 44.805 76.7719C45.4043 76.4062 46.0037 76.6402 46.5837 76.8694C47.212 77.1131 47.8162 77.3471 48.3768 76.8011C48.5557 76.6402 48.778 76.6354 49.0003 76.6354C49.0777 76.6354 49.1598 76.6354 49.242 76.6256C49.0632 75.6994 48.082 75.7091 47.0767 75.7189C45.9167 75.7335 44.7422 75.7481 44.7808 74.31C45.8538 73.5836 45.8635 72.3259 45.8732 71.1364C45.8732 70.8439 45.8732 70.566 45.8973 70.293C46.6852 70.7317 47.5213 71.073 48.3527 71.4094C49.1357 71.7262 49.9138 72.0431 50.6437 72.4331C51.4073 73.6519 52.5963 75.2606 54.1817 75.1534C54.2203 75.0266 54.259 74.9242 54.3073 74.7975C54.3992 74.817 54.4958 74.8365 54.5925 74.8657C55.0082 74.9632 55.4528 75.0754 55.6703 74.5879ZM86.7438 60.7965C87.6622 61.7032 88.9043 62.2102 90.2045 62.2102C91.5047 62.2102 92.7468 61.7032 93.6652 60.7965C94.1178 60.3528 94.4779 59.8224 94.7244 59.2364C94.971 58.6504 95.0989 58.0206 95.1007 57.384C95.0989 56.7474 94.971 56.1176 94.7244 55.5316C94.4779 54.9456 94.1178 54.4151 93.6652 53.9715C92.9891 53.306 92.1384 52.8495 91.2134 52.656C90.2884 52.4625 89.3279 52.5401 88.4452 52.8795L85.6418 48.8284L83.6843 50.1544L86.5022 54.225C85.6983 55.1422 85.275 56.3361 85.32 57.5595C85.365 58.7828 85.8748 59.9419 86.7438 60.7965ZM77.9617 47.6827C78.7741 48.0795 79.6782 48.246 80.5773 48.1645C81.4763 48.0829 82.3365 47.7563 83.0657 47.2196C83.8989 46.6076 84.5142 45.7408 84.8202 44.748C85.123 43.7591 85.0959 42.6973 84.7428 41.7255C84.3843 40.7488 83.7233 39.9146 82.8578 39.3465C81.8956 38.7098 80.744 38.4298 79.5998 38.5543C78.4556 38.6788 77.3897 39.2 76.5842 40.029C76.0611 40.5742 75.6733 41.2365 75.4524 41.9617C75.2315 42.687 75.1837 43.4546 75.313 44.202C75.4491 44.9471 75.7589 45.6489 76.2168 46.2495C76.676 46.8589 77.2753 47.3464 77.9617 47.6827ZM77.9617 75.7237C78.7744 76.1195 79.6783 76.2854 80.5771 76.2038C81.476 76.1223 82.336 75.7963 83.0657 75.2606C83.8989 74.6486 84.5142 73.7818 84.8202 72.789C85.123 71.8001 85.0959 70.7383 84.7428 69.7665C84.3843 68.7898 83.7233 67.9556 82.8578 67.3875C81.8959 66.7499 80.7441 66.4694 79.5996 66.5939C78.4552 66.7184 77.3892 67.2402 76.5842 68.07C76.0608 68.615 75.6727 69.2772 75.4518 70.0025C75.2309 70.7278 75.1833 71.4956 75.313 72.243C75.4491 72.9881 75.7589 73.6899 76.2168 74.2905C76.676 74.8999 77.2753 75.3874 77.9617 75.7237ZM82.4567 58.5832V56.1847H74.965C74.7753 55.4536 74.4157 54.7785 73.9162 54.2152L76.7388 50.0861L74.6847 48.7406L71.8668 52.8697C71.0031 52.5662 70.0727 52.5103 69.1793 52.7083C68.2859 52.9062 67.4645 53.3503 66.8063 53.991C66.3554 54.4316 65.9965 54.9588 65.7508 55.5415C65.5051 56.1243 65.3775 56.7507 65.3757 57.384C65.3757 58.6564 65.8928 59.88 66.8063 60.777C67.4645 61.4177 68.2859 61.8617 69.1793 62.0597C70.0727 62.2576 71.0031 62.2017 71.8668 61.8982L74.6847 66.0274L76.7147 64.6819L73.9162 60.5527C74.4157 59.9895 74.7753 59.3144 74.965 58.5832H82.4567Z" fill="#1C3C3C"/>
</svg>
