<svg width="117" height="117" viewBox="0 0 117 117" fill="none" xmlns="http://www.w3.org/2000/svg">
<path d="M68.6888 74.1345C68.3621 74.6707 67.3822 74.7 66.5437 74.2076C66.1437 73.9835 65.8208 73.6437 65.6175 73.2326C65.4615 72.8865 65.4566 72.5599 65.6077 72.3112C65.7784 72.0334 66.1343 71.892 66.5535 71.892C66.9289 71.892 67.3579 72.0041 67.7527 72.2381C68.5815 72.7305 69.0154 73.6031 68.6888 74.1345ZM117 58.5004C117 74.6269 103.662 87.7504 87.2674 87.7504H29.7375C13.338 87.7504 0 74.6317 0 58.5004C0 42.369 13.338 29.2504 29.7326 29.2504H87.2625C103.662 29.2504 117 42.3739 117 58.5004ZM57.3007 73.1741C57.7687 72.6086 55.6042 71.034 55.1606 70.4587C54.2636 69.4984 54.2588 68.1187 53.6494 66.9975C52.1674 63.6142 50.4611 60.2554 48.0773 57.3937C45.552 54.2591 42.4417 51.6656 39.7118 48.726C37.6789 46.6736 37.1377 43.7535 35.3486 41.5402C32.877 37.9571 25.0721 36.9772 23.9265 42.0424C23.9314 42.2032 23.8826 42.3007 23.7412 42.4031C23.1075 42.8565 22.5469 43.3732 22.074 43.9972C20.9137 45.5816 20.7383 48.2726 22.1813 49.701C22.23 48.9502 22.2544 48.2385 22.8638 47.7022C23.9801 48.648 25.6669 48.9795 26.9588 48.2726C29.8253 52.2945 29.1135 57.8617 31.3853 62.1956C32.019 63.2194 32.6479 64.2675 33.4523 65.1645C34.1104 66.1639 36.3675 67.3485 36.4991 68.2747C36.5235 69.864 36.3334 71.6044 37.3961 72.9352C37.8934 73.9346 36.6649 74.934 35.6801 74.8121C34.3931 74.9827 32.8282 73.959 31.7021 74.5879C31.3024 75.012 30.5273 74.544 30.1811 75.1339C30.0641 75.4361 29.4206 75.8651 29.8057 76.1576C30.2299 75.8407 30.6248 75.5092 31.2 75.6945C31.1123 76.1576 31.4827 76.221 31.7753 76.3526C31.7655 76.6646 31.5802 76.9864 31.824 77.2496C32.1068 76.9669 32.2725 76.5671 32.7259 76.455C34.2176 78.4099 35.7386 74.4709 38.9659 76.2454C38.3126 76.2161 37.7325 76.2941 37.2889 76.8255C37.1768 76.9425 37.0841 77.0839 37.2791 77.2399C39.0244 76.1332 39.0146 77.6201 40.1456 77.1619C41.0134 76.7134 41.8811 76.1576 42.9146 76.3136C41.9104 76.6012 41.8714 77.3959 41.2815 78.0686C41.184 78.1661 41.1353 78.288 41.2474 78.4586C43.3388 78.2831 43.5094 77.6006 45.1961 76.7621C46.4539 76.0065 47.7067 77.8395 48.7939 76.7962C49.0376 76.572 49.3643 76.65 49.6616 76.6159C49.2814 74.6171 45.0986 76.9815 45.162 74.3051C46.5075 73.4032 46.2004 71.6775 46.293 70.2881C47.8384 71.1315 49.5592 71.6239 51.0802 72.4331C51.8456 73.647 53.0449 75.2557 54.6488 75.1485L54.7706 74.7975C55.2581 74.8804 55.8821 75.1924 56.1502 74.5879C56.8717 75.3386 57.9394 75.2996 58.8851 75.1095C59.5871 74.544 57.5689 73.7445 57.2959 73.1692L57.3007 73.1741ZM79.0042 63.7361L75.8209 59.5095C73.0421 62.6392 71.1896 64.1602 71.1555 64.1895C71.136 64.2041 69.3664 65.9006 67.7527 67.3582C66.1684 68.7866 64.9155 69.9127 64.2769 71.151C64.0855 71.6024 63.9853 72.0872 63.9819 72.5774C63.9786 73.0677 64.0722 73.5538 64.2574 74.0077C64.6717 74.9827 65.5151 75.675 66.768 76.0699C67.1434 76.1869 67.4993 76.2356 67.8454 76.2356C70.1025 76.2356 71.5845 74.0077 71.5942 73.9931C71.6137 73.9639 73.5345 71.2631 75.8696 67.8604C76.6496 66.7294 77.5369 65.5301 79.0042 63.7361ZM93.9705 73.4715C93.9697 72.8462 93.7369 72.2434 93.3173 71.7799L92.9224 71.3411L82.0267 59.1975C79.7476 56.6146 77.5416 53.968 75.4114 51.261L75.0116 50.442V48.999C75.0104 48.4726 74.9026 47.9519 74.6947 47.4682L73.8465 45.4792C73.8319 45.45 73.827 45.4159 73.8319 45.3866L73.866 45.1087C73.866 45.0649 73.8904 45.0259 73.9294 44.9966C75.881 43.3953 78.36 42.58 80.8811 42.7102C81.3832 42.7297 81.4661 42.4665 81.4856 42.3495C81.5539 41.7937 80.2669 41.1454 79.0774 40.9016C77.4345 40.575 73.0714 39.6975 69.5858 41.9497L69.5565 41.9692C67.3042 43.8217 65.4908 45.2355 65.4713 45.255L65.4323 45.294C65.2344 45.5348 65.0871 45.8131 64.9992 46.1121C64.9112 46.4111 64.8844 46.7248 64.9204 47.0344C65.0179 47.6535 64.6961 47.8777 64.6766 47.8875C64.6571 47.9021 64.2086 48.18 63.7504 47.8631C63.1897 47.4536 62.2196 48.1556 62.0198 48.3165L60.5573 49.5547L60.528 49.584C60.4988 49.6132 59.8699 50.3347 60.7133 51.495C61.4396 52.4992 61.6931 52.8356 62.322 53.6059C62.9655 54.3859 64.116 55.3804 64.1794 55.4291C64.2086 55.4535 64.9106 55.98 65.8856 55.2487C66.6803 54.6442 67.3189 54.1031 67.3189 54.1031C67.3676 54.0592 67.8356 53.6887 67.8551 53.133V52.7137C67.8405 52.3237 67.8405 52.2067 68.1379 52.0215C68.2841 52.0215 68.718 52.1775 69.0934 52.3627C69.6554 52.675 70.2838 52.8488 70.9264 52.8697C71.4626 52.938 72.0574 53.5425 72.2621 53.7862C72.2816 53.8057 74.1 55.6875 76.6594 58.9732C77.1469 59.6021 78.9409 61.947 79.4284 62.6002L82.8165 67.1389C85.1273 70.2296 87.711 73.6957 88.8859 75.2557C89.2759 75.7725 89.8463 76.1235 90.4898 76.2454L90.9285 76.3282C91.3835 76.4219 91.8555 76.3897 92.2936 76.235C92.7317 76.0804 93.1193 75.8093 93.4148 75.4507L93.4342 75.4166C93.7846 74.9724 93.9737 74.4224 93.9705 73.8566V73.4666V73.4715ZM96.018 45.7132L95.5061 45.216C95.4321 45.143 95.3438 45.086 95.2468 45.0487C95.1497 45.0113 95.0461 44.9944 94.9422 44.999C94.8383 45.0036 94.7365 45.0295 94.6431 45.0753C94.5497 45.121 94.4668 45.1855 94.3995 45.2647L91.2161 48.9697C91.1244 49.0759 90.9951 49.1423 90.8554 49.155L89.7244 49.2671C89.6522 49.2744 89.5793 49.2674 89.5099 49.2465C89.4405 49.2256 89.3759 49.1912 89.3198 49.1452L87.5111 47.634C87.4535 47.587 87.4063 47.5285 87.3728 47.4621C87.3392 47.3958 87.3199 47.3231 87.3161 47.2489L87.2917 46.3567C87.2867 46.2271 87.3302 46.1002 87.4136 46.0009L90.5141 42.33C90.6287 42.1972 90.6918 42.0276 90.6918 41.8522C90.6918 41.6768 90.6287 41.5073 90.5141 41.3745L90.1973 41.0137C90.0962 40.898 89.9625 40.8155 89.8137 40.7772C89.6649 40.7389 89.508 40.7466 89.3636 40.7992C88.027 41.2884 86.7199 41.8548 85.449 42.4957C83.5624 43.4951 82.251 45.0844 82.0267 46.6395C81.861 47.7802 81.9293 49.662 81.9878 50.676C82.0089 51.0802 81.916 51.4823 81.7196 51.8362C81.4759 52.2799 81.0469 52.9916 80.3985 53.8496C80.0621 54.2981 79.8525 54.4687 79.5698 54.8002L83.0749 58.8562C83.9183 57.8861 84.6592 57.15 85.3027 56.4431C86.4776 55.1561 86.8432 55.1415 87.8231 55.1122C88.4276 55.0879 89.2564 55.0635 90.5677 54.7417C94.146 53.8642 95.277 50.052 95.3258 49.8814L96.213 46.4201C96.2442 46.2962 96.2426 46.1664 96.2084 46.0433C96.1743 45.9202 96.1086 45.8082 96.018 45.7181V45.7132ZM40.9987 69.8737C40.6087 71.3509 40.4869 73.8712 38.532 73.9444C38.3711 74.7975 39.1316 75.1192 39.8239 74.8462C40.5112 74.5342 40.8379 75.09 41.0719 75.6457C42.1297 75.7969 43.7044 75.2947 43.758 74.0614C42.1736 73.1644 41.6861 71.4532 40.9939 69.8689L40.9987 69.8737Z" fill="#1C3C3C"/>
</svg>
