<svg width="117" height="117" viewBox="0 0 117 117" fill="none" xmlns="http://www.w3.org/2000/svg">
<path d="M40.8181 70.6983C40.8814 70.4058 40.9351 70.123 41.0033 69.8695L41.3007 70.5764C41.8613 71.9414 42.4171 73.2918 43.7674 74.0571C43.7089 75.2954 42.1392 75.7975 41.0764 75.6464C40.8424 75.0906 40.5158 74.5349 39.8333 74.8469C39.1362 75.1199 38.3708 74.7981 38.5366 73.945C40.1599 73.8865 40.5207 72.1364 40.8181 70.6983ZM89.6266 45.0704C88.0763 45.0704 86.6236 45.6651 85.5364 46.7376L81.1392 51.0618C79.9546 52.2318 79.3452 53.8503 79.4671 55.5126L79.4963 55.7856C79.6523 57.0629 80.2227 58.2134 81.1392 59.1104C81.7729 59.7344 82.4701 60.1341 83.3183 60.4071C83.444 61.0888 83.3999 61.791 83.1899 62.4516C82.9799 63.1123 82.6104 63.711 82.1142 64.195L81.8412 64.4631C80.1612 63.9086 78.6614 62.9122 77.4991 61.5784C76.3369 60.2446 75.555 58.6226 75.2356 56.8825L75.1868 56.6046L74.9626 56.785C74.8163 56.902 74.6701 57.0288 74.5336 57.1653L70.1363 61.4894C69.6018 62.014 69.1773 62.6398 68.8875 63.3304C68.5977 64.021 68.4484 64.7624 68.4484 65.5113C68.4484 66.2602 68.5977 67.0016 68.8875 67.6921C69.1773 68.3827 69.6018 69.0085 70.1363 69.5331C71.2624 70.6446 72.7444 71.2004 74.2313 71.2004C75.7133 71.2004 77.1904 70.6446 78.3166 69.538L82.7138 65.209C83.4024 64.5357 83.907 63.6971 84.1794 62.7734C84.4518 61.8496 84.4828 60.8714 84.2697 59.9322C84.0565 58.993 83.6062 58.1241 82.9617 57.4085C82.3173 56.6928 81.5001 56.1542 80.5883 55.8441C80.4634 55.1021 80.5206 54.3409 80.755 53.6259C80.9894 52.9109 81.3939 52.2635 81.9338 51.7394C83.6273 52.3064 85.1392 53.3144 86.3139 54.6596C87.4886 56.0048 88.2837 57.6387 88.6174 59.3931L88.6662 59.671L88.8953 59.4906C89.0416 59.3736 89.1878 59.2469 89.3243 59.1104L93.7216 54.7814C94.2566 54.2571 94.6817 53.6314 94.9719 52.9408C95.2621 52.2502 95.4116 51.5086 95.4116 50.7595C95.4116 50.0104 95.2621 49.2688 94.9719 48.5782C94.6817 47.8876 94.2566 47.2619 93.7216 46.7376C92.6308 45.6622 91.1583 45.0627 89.6266 45.0704Z" fill="#1C3C3C"/>
<path fill-rule="evenodd" clip-rule="evenodd" d="M87.2674 29.2504H29.7375C13.338 29.2504 0 42.3739 0 58.5004C0 74.6269 13.338 87.7504 29.7326 87.7504H87.2625C103.662 87.7504 117 74.6269 117 58.5004C117 42.3739 103.662 29.2504 87.2674 29.2504ZM58.89 75.1095C57.9394 75.3045 56.8717 75.3386 56.1502 74.5927C55.9309 75.0802 55.4873 74.9681 55.0729 74.8657C54.9747 74.8391 54.8755 74.8163 54.7755 74.7975C54.7267 74.9194 54.6926 75.0315 54.6488 75.1534C53.0449 75.2557 51.8456 73.647 51.0802 72.4331C50.3298 72.0522 49.5602 71.7105 48.7744 71.4094C47.9359 71.0681 47.0925 70.7269 46.293 70.2881C46.2755 70.5689 46.269 70.8502 46.2735 71.1315C46.2637 72.321 46.254 73.5836 45.1669 74.3051C45.1328 75.7432 46.3174 75.7286 47.4874 75.7189C48.4965 75.7042 49.4861 75.6945 49.6665 76.6159C49.5856 76.6249 49.5042 76.6298 49.4227 76.6305C49.1985 76.6305 48.9742 76.6305 48.8036 76.7962C48.2332 77.3374 47.6239 77.1034 46.9901 76.8596C46.4051 76.6354 45.8055 76.4014 45.201 76.7621C44.7593 76.9842 44.3326 77.2349 43.9238 77.5129C43.1509 78.0938 42.2185 78.4239 41.2523 78.4586C41.1353 78.2831 41.184 78.171 41.2815 78.0686C41.357 77.9821 41.427 77.8909 41.4911 77.7956C41.5837 77.6591 41.6618 77.5177 41.7397 77.3861C42.003 76.923 42.2419 76.5086 42.9195 76.3136C42.0176 76.1722 41.2425 76.5817 40.482 76.9815L40.4625 76.9912C40.3574 77.0474 40.2517 77.1027 40.1456 77.157C39.6727 77.352 39.3949 77.2009 39.1121 77.0449C38.7124 76.8255 38.2931 76.5964 37.2791 77.2399C37.0841 77.0839 37.1816 76.9425 37.2889 76.8206C37.7325 76.2892 38.3126 76.2112 38.9707 76.2405C37.2596 75.2996 36.0262 75.9675 35.022 76.5086C34.1348 76.9864 33.4279 77.3666 32.7259 76.4501C32.409 76.533 32.2286 76.7572 32.0531 76.9766C31.98 77.0741 31.9069 77.1619 31.824 77.2447C31.6534 77.0546 31.6924 76.8401 31.7363 76.6207L31.7606 76.494C31.7685 76.4456 31.7734 76.3967 31.7753 76.3477L31.6436 76.299C31.3853 76.1917 31.1318 76.0845 31.2049 75.6945C30.6345 75.4995 30.2299 75.8407 29.8106 76.1527C29.5474 75.9529 29.7619 75.6896 29.9666 75.4459C30.0544 75.3512 30.1283 75.2445 30.186 75.129C30.3713 74.8121 30.6881 74.8024 30.9952 74.7926C31.2585 74.7877 31.5217 74.778 31.7021 74.5879C32.3505 74.2222 33.15 74.4124 33.9544 74.6025C34.5443 74.739 35.1341 74.8804 35.6801 74.8072C36.6698 74.9291 37.8934 73.9297 37.3961 72.9304C36.4894 71.7945 36.4991 70.3564 36.504 68.967V68.2699C36.426 67.7434 35.6655 67.134 34.905 66.5246C34.32 66.0615 33.735 65.5935 33.4523 65.1596C32.6722 64.2967 32.0629 63.2974 31.4584 62.3077L31.3853 62.1907C30.3518 60.2212 29.9374 57.9982 29.523 55.7801C29.0209 53.1184 28.5236 50.4664 26.9588 48.2726C25.662 48.9746 23.9753 48.6382 22.8589 47.6974C22.2739 48.219 22.2251 48.9015 22.1861 49.6279L22.1813 49.6961C20.7334 48.2726 20.9137 45.5816 22.0691 43.9924C22.542 43.3684 23.1075 42.8565 23.7364 42.4031C23.8826 42.3007 23.9314 42.1984 23.9265 42.0424C25.0721 36.9724 32.877 37.9522 35.3438 41.5402C36.1579 42.5445 36.7136 43.695 37.2694 44.8455C37.9372 46.2251 38.6003 47.6047 39.7069 48.7211C40.7794 49.8765 41.9104 50.9782 43.0414 52.08C44.7915 53.7862 46.5416 55.4876 48.0724 57.3889C50.4611 60.2505 52.1625 63.6094 53.6494 66.9926C53.8931 67.4411 54.0394 67.9335 54.1856 68.421C54.4001 69.1522 54.6195 69.8786 55.1606 70.4539C55.2874 70.6245 55.5701 70.8829 55.887 71.1754C56.6475 71.8725 57.6274 72.7744 57.2959 73.1692C57.3398 73.2619 57.4275 73.3642 57.5396 73.4617C57.6956 73.5982 57.9004 73.7445 58.1051 73.8907C58.6999 74.3149 59.3288 74.7585 58.89 75.1095ZM96.8077 57.8276L92.4105 62.1517C91.2405 63.3071 89.7926 64.1651 88.2229 64.638L88.14 64.6624L88.1107 64.7355C87.6025 66.0598 86.8143 67.2587 85.8 68.2504L81.4027 72.5794C79.4869 74.466 76.9372 75.5044 74.217 75.5044C71.5016 75.5044 68.952 74.466 67.0312 72.5794C66.0908 71.6579 65.3437 70.5581 64.8337 69.3443C64.3236 68.1306 64.0609 66.8272 64.0609 65.5106C64.0609 64.194 64.3236 62.8907 64.8337 61.6769C65.3437 60.4631 66.0908 59.3633 67.0312 58.4419L71.4285 54.1129C72.6083 52.9526 74.0171 52.119 75.6161 51.6364L75.6941 51.6169L75.7234 51.5389C76.2353 50.2129 77.0152 49.0234 78.039 48.0094L82.4362 43.6852C84.3521 41.7986 86.9066 40.7602 89.622 40.7602C92.3423 40.7602 94.887 41.7986 96.8077 43.6852C98.7285 45.5719 99.7815 48.0825 99.7815 50.754C99.7815 53.4304 98.7285 55.941 96.8077 57.8227V57.8276Z" fill="#1C3C3C"/>
</svg>
