<svg width="116" height="117" viewBox="0 0 116 117" fill="none" xmlns="http://www.w3.org/2000/svg">
<g clip-path="url(#clip0_46_142)">
<path d="M71.8857 1.89541C67.9299 0.638249 63.8067 -0.000949296 59.6593 1.44912e-05C53.7512 -0.00501017 47.914 1.29671 42.5587 3.81345C37.2035 6.3302 32.4606 10.0008 28.6641 14.5665L47.7751 30.7827L71.8857 1.89541Z" fill="#1A73E8"/>
<path d="M28.6569 14.5723C22.5306 21.9157 19.174 31.2064 19.1797 40.8037C19.1797 48.4672 20.6935 54.7033 23.1875 60.2666L47.7795 30.7826L28.6511 14.5664L28.6569 14.5723Z" fill="#EA4335"/>
<path d="M59.6579 25.2134C62.6088 25.2178 65.4971 26.0722 67.9829 27.6761C70.4688 29.2799 72.4487 31.5666 73.6899 34.2669C74.931 36.9672 75.3817 39.9689 74.9889 42.9188C74.596 45.8686 73.3761 48.644 71.4725 50.9183L95.5541 22.031C90.6111 12.4248 82.0893 5.19087 71.8611 1.9187L47.7969 30.806C49.248 29.0559 51.0623 27.6484 53.1118 26.6831C55.1613 25.7177 57.3959 25.218 59.6579 25.2193V25.2134Z" fill="#4285F4"/>
<path d="M59.6579 56.435C55.5538 56.4335 51.6181 54.7888 48.7155 51.8622C45.8129 48.9357 44.1808 44.9667 44.1777 40.8272C44.1711 37.1602 45.4534 33.6096 47.7969 30.8062L23.1875 60.2902C27.3983 69.6911 34.3815 77.2376 41.5735 86.7497L71.4667 50.9185C70.0162 52.6508 68.2076 54.0422 66.1677 54.9951C64.1278 55.9481 61.906 56.4395 59.6579 56.435Z" fill="#FBBC04"/>
<path d="M70.8761 96.5251C84.3901 75.2311 100.108 65.5552 100.108 40.8038C100.108 34.0178 98.4609 27.6179 95.5551 21.9844L41.5977 86.7497C43.8829 89.7742 46.1971 92.9858 48.4417 96.5426C56.6371 109.337 54.3693 117 59.6589 117C64.9485 117 62.6807 109.313 70.8761 96.5251Z" fill="#34A853"/>
</g>
<defs>
<clipPath id="clip0_46_142">
<rect width="116" height="117" fill="white"/>
</clipPath>
</defs>
</svg>
