<svg width="150" height="150" viewBox="0 0 150 150" fill="none" xmlns="http://www.w3.org/2000/svg">
<path d="M74.2189 38.1645C68.1251 39.1793 63.0087 41.6801 59.1802 45.5075C54.6485 50.0391 52.3446 55.4684 51.563 63.5157C51.2114 67.1871 51.0157 81.641 51.3286 81.641C51.4071 81.641 52.1489 81.3668 52.9693 81.0153C54.8829 80.195 59.0243 80.195 61.1724 80.9766L62.813 81.5625L63.0087 72.1489C63.2032 62.1094 63.4376 60.586 65.3126 56.836C66.6017 54.3364 69.7271 51.4067 72.3837 50.195C75.4306 48.7887 79.8837 48.2426 83.3208 48.7887C90.665 50.0004 95.0396 53.9848 96.8759 61.0934C97.6177 63.9457 97.6564 65.4293 97.6564 81.1325V98.0473H109.454L109.258 79.5704C109.141 62.1094 109.063 60.9375 108.243 57.8121C106.017 49.1403 100.626 42.852 93.086 39.9996C89.063 38.4762 85.2345 37.8903 79.9611 37.9301C77.3443 37.9688 74.7661 38.086 74.2189 38.1645Z" fill="black"/>
<path d="M26.6406 67.0312C23.282 68.7105 21.4844 71.7187 21.4844 75.7816C21.4844 77.0707 21.7187 78.7113 22.0316 79.4531C22.7734 81.2894 24.8828 83.516 26.7191 84.4921C28.9457 85.664 33.1645 85.664 35.3523 84.5308L36.9531 83.7105L41.9535 87.1089L46.9539 90.5472V95.7421L41.9535 99.1793L36.9145 102.618L35.6254 101.836C33.7504 100.743 30.1176 100.508 27.891 101.367C25.5473 102.266 23.125 104.414 22.2273 106.445C21.25 108.516 21.25 112.578 22.2273 114.648C23.0477 116.484 24.9613 118.515 26.6805 119.414C27.3836 119.766 29.0629 120.117 30.4691 120.234C33.7504 120.469 36.5242 119.375 38.5164 117.032C40.1172 115.157 41.1719 111.875 40.8988 109.609L40.7031 108.008L45.7422 104.61L50.7812 101.211L52.5789 102.032C55.3129 103.203 59.3758 102.929 61.9539 101.367C64.7664 99.6093 66.1727 97.1097 66.3285 93.5941C66.4457 91.1332 66.3285 90.5859 65.3523 88.6722C62.8129 83.8277 57.1492 81.9925 52.3047 84.4136L50.8598 85.1168L45.8992 81.7183L40.9375 78.3199L40.8203 75.5859C40.743 72.3046 39.8055 70.1953 37.5004 68.2816C34.5707 65.7808 30.1961 65.2734 26.6406 67.0312Z" fill="#018BFF"/>
</svg>
