<svg width="117" height="117" viewBox="0 0 117 117" fill="none" xmlns="http://www.w3.org/2000/svg">
<g id="openai">
<g id="openai_2">
<path id="Vector" d="M102.06 49.9366C103.31 46.4991 103.623 43.0616 103.31 39.6241C102.998 36.1866 101.748 32.7491 100.185 29.6241C97.3726 24.9366 93.3101 21.1866 88.6226 18.9991C83.6226 16.8116 78.3101 16.1866 72.9976 17.4366C70.4976 14.9366 67.6851 12.7491 64.5601 11.1866C61.4351 9.62415 57.6851 8.99915 54.2476 8.99915C48.9351 8.99915 43.6226 10.5616 39.2476 13.6866C34.8726 16.8116 31.7476 21.1866 30.1851 26.1866C26.4351 27.1241 23.3101 28.6866 20.1851 30.5616C17.3726 32.7491 15.1851 35.5616 13.3101 38.3741C10.4976 43.0616 9.56007 48.3741 10.1851 53.6866C10.8101 58.9991 12.9976 63.9991 16.4351 68.0616C15.1851 71.4991 14.8726 74.9366 15.1851 78.3741C15.4976 81.8116 16.7476 85.2491 18.3101 88.3741C21.1226 93.0616 25.1851 96.8116 29.8726 98.9991C34.8726 101.187 40.1851 101.812 45.4976 100.562C47.9976 103.062 50.8101 105.249 53.9351 106.812C57.0601 108.374 60.8101 108.999 64.2476 108.999C69.5601 108.999 74.8726 107.437 79.2476 104.312C83.6226 101.187 86.7476 96.8116 88.3101 91.8116C91.7476 91.1866 95.1851 89.6241 97.9976 87.4366C100.81 85.2491 103.31 82.7491 104.873 79.6241C107.685 74.9366 108.623 69.6241 107.998 64.3116C107.373 58.9991 105.498 53.9991 102.06 49.9366ZM64.5601 102.437C59.5601 102.437 55.8101 100.874 52.3726 98.0616C52.3726 98.0616 52.6851 97.7491 52.9976 97.7491L72.9976 86.1866C73.6226 85.8741 73.9351 85.5616 74.2476 84.9366C74.5601 84.3116 74.5601 83.9991 74.5601 83.3741V55.2491L82.9976 60.2491V83.3741C83.3101 94.3116 74.5601 102.437 64.5601 102.437ZM24.2476 85.2491C22.0601 81.4991 21.1226 77.1241 22.0601 72.7491C22.0601 72.7491 22.3726 73.0616 22.6851 73.0616L42.6851 84.6241C43.3101 84.9366 43.6226 84.9366 44.2476 84.9366C44.8726 84.9366 45.4976 84.9366 45.8101 84.6241L70.1851 70.5616V80.2491L49.8726 92.1241C45.4976 94.6241 40.4976 95.2491 35.8101 93.9991C30.8101 92.7491 26.7476 89.6241 24.2476 85.2491ZM18.9351 41.8116C21.1226 38.0616 24.5601 35.2491 28.6226 33.6866V34.3116V57.4366C28.6226 58.0616 28.6226 58.6866 28.9351 58.9991C29.2476 59.6241 29.5601 59.9366 30.1851 60.2491L54.5601 74.3116L46.1226 79.3116L26.1226 67.7491C21.7476 65.2491 18.6226 61.1866 17.3726 56.4991C16.1226 51.8116 16.4351 46.1866 18.9351 41.8116ZM87.9976 57.7491L63.6226 43.6866L72.0601 38.6866L92.0601 50.2491C95.1851 52.1241 97.6851 54.6241 99.2476 57.7491C100.81 60.8741 101.748 64.3116 101.435 68.0616C101.123 71.4991 99.8726 74.9366 97.6851 77.7491C95.4976 80.5616 92.6851 82.7491 89.2476 83.9991V60.2491C89.2476 59.6241 89.2476 58.9991 88.9351 58.6866C88.9351 58.6866 88.6226 58.0616 87.9976 57.7491ZM96.4351 45.2491C96.4351 45.2491 96.1226 44.9366 95.8101 44.9366L75.8101 33.3741C75.1851 33.0616 74.8726 33.0616 74.2476 33.0616C73.6226 33.0616 72.9976 33.0616 72.6851 33.3741L48.3101 47.4366V37.7491L68.6226 25.8741C71.7476 23.9991 75.1851 23.3741 78.9351 23.3741C82.3726 23.3741 85.8101 24.6241 88.9351 26.8116C91.7476 28.9991 94.2476 31.8116 95.4976 34.9366C96.7476 38.0616 97.0601 41.8116 96.4351 45.2491ZM43.9351 62.7491L35.4976 57.7491V34.3116C35.4976 30.8741 36.4351 27.1241 38.3101 24.3116C40.1851 21.1866 42.9976 18.9991 46.1226 17.4366C49.2476 15.8741 52.9976 15.2491 56.4351 15.8741C59.8726 16.1866 63.3101 17.7491 66.1226 19.9366C66.1226 19.9366 65.8101 20.2491 65.4976 20.2491L45.4976 31.8116C44.8726 32.1241 44.5601 32.4366 44.2476 33.0616C43.9351 33.6866 43.9351 33.9991 43.9351 34.6241V62.7491ZM48.3101 52.7491L59.2476 46.4991L70.1851 52.7491V65.2491L59.2476 71.4991L48.3101 65.2491V52.7491Z" fill="#193718"/>
</g>
</g>
</svg>
