<svg width="116" height="117" viewBox="0 0 116 117" fill="none" xmlns="http://www.w3.org/2000/svg">
<path d="M50.3436 102.67C53.9332 102.67 56.8433 105.605 56.8433 109.226C56.8433 112.846 53.9332 115.781 50.3436 115.781C46.754 115.781 43.8441 112.846 43.8441 109.226C43.8441 105.605 46.754 102.67 50.3436 102.67ZM86.4033 90.709L92.8262 92.6284L87.7278 109.984C87.2823 111.501 85.8532 112.503 84.2886 112.395L82.7138 112.286L82.6752 112.318L66.3128 111.16L66.7682 104.419L77.7613 105.171L70.5644 94.6999L76.0697 90.8501L83.276 101.335L86.4033 90.709ZM16.4958 78.7109L23.178 79.1883L22.3954 90.2745L32.7584 83.0063L36.5839 88.5528L26.2073 95.8287L36.7988 98.9765L34.9056 105.458L17.6169 100.32C16.1076 99.8718 15.1112 98.4241 15.2225 96.8409L16.4958 78.7109ZM59.6407 69.2705L71.7009 83.9565L66.2655 88.4975L59.088 79.7573L56.7611 93.1953L49.8086 91.9694L52.1379 78.5107L42.4752 84.257L38.8927 78.1235L55.1318 68.4743C56.6247 67.5871 58.5354 67.9245 59.6407 69.2705ZM93.3827 59.4174L99.4072 56.1114L108.184 72.3814C108.953 73.8068 108.636 75.5794 107.422 76.6443L106.18 77.7264L93.5099 88.8481L89.0091 83.6284L97.5272 76.1538L84.8394 73.8483L86.0565 67.0406L98.7355 69.3448L93.3827 59.4174ZM22.3346 42.4073L26.8729 47.5938L18.4717 55.0673L31.1837 57.3058L30.0055 64.1205L17.2794 61.8802L22.7457 71.8475L16.7442 75.196L7.82712 58.9377C7.04857 57.5182 7.35276 55.7436 8.55866 54.6701L22.3346 42.4073ZM65.3036 37.0565L77.3231 51.703L71.8862 56.242L64.7104 47.4981L62.3834 60.9401L55.431 59.7142L57.7522 46.3076L48.1266 51.9989L44.5578 45.8573L59.3432 37.1137L59.3578 37.0569L59.4229 37.0655L60.8008 36.2551C62.2936 35.3728 64.2004 35.7121 65.3036 37.0565ZM80.7922 29.8533L83.4209 23.464L100.425 30.5811C101.909 31.2023 102.766 32.7797 102.488 34.3758L102.205 35.9635L99.3009 52.6228L92.5465 51.4227L94.4928 40.2709L83.2118 46.5594L79.8966 40.5037L91.1992 34.2099L80.7922 29.8533ZM48.4 17.2626L48.6923 24.1739L37.46 24.6581L45.9317 34.4229L40.7701 38.9782L32.2843 29.1987L30.3072 40.3635L23.5559 39.1455L26.7914 20.9002C27.0742 19.3056 28.4163 18.1226 30.0209 18.0535L31.6104 17.9818L31.646 17.9557L48.4 17.2626ZM71.3766 2.52337L83.3417 17.2624L77.8808 21.7722L70.7793 13.0228L68.3841 26.447L61.4378 25.1862L63.8371 11.7319L54.1413 17.4496L50.5805 11.3033L66.8658 1.70515C68.3642 0.821965 70.277 1.16892 71.3766 2.52337Z" fill="#201D1E"/>
</svg>
