<svg width="117" height="117" viewBox="0 0 117 117" fill="none" xmlns="http://www.w3.org/2000/svg">
<g id="python">
<g id="python_2">
<path id="Vector" d="M58.6397 9C33.2535 9 34.8385 20.009 34.8385 20.009L34.8667 31.4146H59.0924V34.8389H25.2447C25.2447 34.8389 9 32.9966 9 58.6111C9 84.2264 23.1788 83.318 23.1788 83.318H31.6406V71.4315C31.6406 71.4315 31.1844 57.2528 45.593 57.2528H69.6205C69.6205 57.2528 83.1199 57.4709 83.1199 44.206V22.2734C83.1199 22.2734 85.1702 9 58.6397 9ZM45.2817 16.6701C45.8542 16.6696 46.4211 16.7819 46.9501 17.0008C47.4791 17.2196 47.9598 17.5406 48.3646 17.9454C48.7693 18.3502 49.0903 18.8308 49.3092 19.3598C49.528 19.8888 49.6404 20.4558 49.6399 21.0282C49.6404 21.6007 49.528 22.1677 49.3092 22.6967C49.0903 23.2256 48.7693 23.7063 48.3646 24.1111C47.9598 24.5159 47.4791 24.8369 46.9501 25.0557C46.4211 25.2746 45.8542 25.3869 45.2817 25.3864C44.7092 25.3869 44.1423 25.2746 43.6133 25.0557C43.0843 24.8369 42.6037 24.5159 42.1989 24.1111C41.7941 23.7063 41.4731 23.2256 41.2542 22.6967C41.0354 22.1677 40.923 21.6007 40.9235 21.0282C40.923 20.4558 41.0354 19.8888 41.2542 19.3598C41.4731 18.8308 41.7941 18.3502 42.1989 17.9454C42.6037 17.5406 43.0843 17.2196 43.6133 17.0008C44.1423 16.7819 44.7092 16.6696 45.2817 16.6701Z" fill="url(#paint0_linear_46_137)"/>
<path id="Vector_2" d="M59.361 108.48C84.7473 108.48 83.1622 97.4711 83.1622 97.4711L83.134 86.0658H58.908V82.6415H92.7557C92.7557 82.6415 109 84.4838 109 58.8685C109 33.2535 94.8216 34.1619 94.8216 34.1619H86.3598V46.0481C86.3598 46.0481 86.816 60.2268 72.4074 60.2268H48.3799C48.3799 60.2268 34.8805 60.0087 34.8805 73.274V95.207C34.8805 95.207 32.8306 108.48 59.3607 108.48H59.361ZM72.7191 100.811C72.1466 100.811 71.5797 100.699 71.0507 100.48C70.5217 100.261 70.041 99.9402 69.6362 99.5354C69.2314 99.1306 68.9104 98.65 68.6916 98.121C68.4728 97.592 68.3604 97.0251 68.3609 96.4526C68.3603 95.8801 68.4727 95.3131 68.6915 94.784C68.9103 94.255 69.2313 93.7743 69.6361 93.3695C70.0409 92.9646 70.5215 92.6436 71.0506 92.4247C71.5796 92.2059 72.1466 92.0935 72.7191 92.094C73.2915 92.0935 73.8585 92.2059 74.3875 92.4247C74.9165 92.6435 75.3971 92.9645 75.8019 93.3693C76.2067 93.7741 76.5277 94.2548 76.7465 94.7838C76.9654 95.3128 77.0778 95.8797 77.0772 96.4522C77.0778 97.0247 76.9654 97.5916 76.7465 98.1206C76.5277 98.6496 76.2067 99.1302 75.8019 99.535C75.3971 99.9398 74.9165 100.261 74.3875 100.48C73.8585 100.699 73.2915 100.811 72.7191 100.81V100.811Z" fill="url(#paint1_linear_46_137)"/>
</g>
</g>
<defs>
<linearGradient id="paint0_linear_46_137" x1="18.61" y1="17.9476" x2="68.1669" y2="67.0102" gradientUnits="userSpaceOnUse">
<stop stop-color="#387EB8"/>
<stop offset="1" stop-color="#366994"/>
</linearGradient>
<linearGradient id="paint1_linear_46_137" x1="49.0284" y1="49.4527" x2="102.247" y2="99.7618" gradientUnits="userSpaceOnUse">
<stop stop-color="#FFE052"/>
<stop offset="1" stop-color="#FFC331"/>
</linearGradient>
</defs>
</svg>
