<svg width="117" height="117" viewBox="0 0 117 117" fill="none" xmlns="http://www.w3.org/2000/svg">
<g id="react">
<g id="react_2">
<path id="Vector" d="M59.3065 67.8163C64.1755 67.8163 68.1227 63.8691 68.1227 59.0001C68.1227 54.131 64.1755 50.1838 59.3065 50.1838C54.4374 50.1838 50.4902 54.131 50.4902 59.0001C50.4902 63.8691 54.4374 67.8163 59.3065 67.8163Z" fill="#61DAFB"/>
<path id="Vector_2" d="M59.3066 77.0626C85.4333 77.0626 106.613 68.9757 106.613 59C106.613 49.0244 85.4333 40.9375 59.3066 40.9375C33.1799 40.9375 12 49.0244 12 59C12 68.9757 33.1799 77.0626 59.3066 77.0626Z" stroke="#61DAFB" stroke-width="5"/>
<path id="Vector_3" d="M43.663 68.0313C56.7264 90.6577 74.3198 104.957 82.9589 99.9687C91.5981 94.9809 88.0116 72.5951 74.9482 49.9687C61.8849 27.3423 44.2915 13.0434 35.6523 18.0313C27.0131 23.0191 30.5997 45.4049 43.663 68.0313Z" stroke="#61DAFB" stroke-width="5"/>
<path id="Vector_4" d="M43.663 49.9687C30.5997 72.5951 27.0132 94.9809 35.6523 99.9687C44.2915 104.957 61.8849 90.6576 74.9483 68.0312C88.0116 45.4048 91.5981 23.0191 82.959 18.0312C74.3198 13.0434 56.7264 27.3423 43.663 49.9687Z" stroke="#61DAFB" stroke-width="5"/>
</g>
</g>
</svg>
