<svg width="117" height="117" viewBox="0 0 117 117" fill="none" xmlns="http://www.w3.org/2000/svg">
<g id="typescript">
<g id="typescript_2">
<path id="Vector" d="M9 9H109V109H9V9Z" fill="#017ACB"/>
<path id="Vector_2" d="M57.0157 46.0312H61.8126V54.3125H48.8438V91.1562L48.5 91.25C48.0313 91.375 41.8594 91.375 40.5313 91.2344L39.4688 91.1406V54.3125H26.5V46.0312L30.6094 45.9844C32.8594 45.9531 38.6406 45.9531 43.4532 45.9844C48.2657 46.0156 54.3594 46.0312 57.0157 46.0312ZM93.6251 87.25C91.7189 89.2656 89.672 90.3906 86.2657 91.3125C84.7813 91.7187 84.5313 91.7344 81.1876 91.7188C77.8438 91.7031 77.5782 91.7031 75.9532 91.2812C71.7501 90.2031 68.3594 88.0937 66.0469 85.1094C65.3907 84.2656 64.3126 82.5156 64.3126 82.2969C64.3126 82.2344 64.4688 82.0937 64.6719 82C64.8751 81.9062 65.2969 81.6406 65.6407 81.4375C65.9844 81.2344 66.6094 80.8594 67.0313 80.6406C67.4532 80.4219 68.6719 79.7031 69.7345 79.0625C70.797 78.4219 71.7657 77.9062 71.8751 77.9062C71.9845 77.9062 72.1876 78.125 72.3438 78.3906C73.2813 79.9687 75.4688 81.9844 77.0157 82.6719C77.9688 83.0781 80.0782 83.5312 81.0938 83.5312C82.0313 83.5312 83.7501 83.125 84.672 82.7031C85.6563 82.25 86.1564 81.7969 86.7501 80.8906C87.1564 80.25 87.2032 80.0781 87.1876 78.8594C87.1876 77.7344 87.1251 77.4219 86.8126 76.9062C85.9376 75.4687 84.7501 74.7187 79.9376 72.5937C74.9688 70.3906 72.7345 69.0781 70.9219 67.3125C69.5782 66 69.3126 65.6406 68.4688 64C67.3751 61.8906 67.2344 61.2031 67.2188 58.0625C67.2032 55.8594 67.2501 55.1406 67.4844 54.3906C67.8126 53.2656 68.8751 51.0937 69.3594 50.5469C70.3594 49.375 70.7188 49.0156 71.422 48.4375C73.547 46.6875 76.8595 45.5312 80.0313 45.4219C80.3907 45.4219 81.5782 45.4844 82.6876 45.5625C85.8751 45.8281 88.047 46.6094 90.1407 48.2812C91.7189 49.5312 94.1095 52.4688 93.8751 52.8594C93.7189 53.0938 87.4845 57.25 87.0782 57.375C86.8282 57.4531 86.6564 57.3594 86.3126 56.9531C84.1876 54.4062 83.3282 53.8594 81.2657 53.7344C79.797 53.6406 79.0157 53.8125 78.0313 54.4687C77.0001 55.1562 76.5001 56.2031 76.5001 57.6562C76.5157 59.7812 77.3282 60.7812 80.3282 62.2656C82.2657 63.2187 83.922 64 84.047 64C84.2345 64 88.2501 66 89.297 66.625C94.172 69.4844 96.1564 72.4219 96.672 77.4844C97.047 81.2969 95.9689 84.7812 93.6251 87.25Z" fill="white"/>
</g>
</g>
</svg>
