<svg width="117" height="117" viewBox="0 0 117 117" fill="none" xmlns="http://www.w3.org/2000/svg">
<path d="M48.75 78V43.875L78 60.996L48.75 78ZM115.83 37.3766C115.83 37.3766 114.684 29.2597 111.179 25.6815C106.728 20.9869 101.741 20.9674 99.4549 20.6944C83.0846 19.5 58.5244 19.5 58.5244 19.5H58.4756C58.4756 19.5 33.9154 19.5 17.5451 20.6944C15.2539 20.9674 10.2716 20.9869 5.81588 25.6815C2.31075 29.2597 1.17 37.3815 1.17 37.3815C1.17 37.3815 0 46.9072 0 56.4379V65.3835C0 74.919 1.17 84.4545 1.17 84.4545C1.17 84.4545 2.31075 92.5714 5.81588 96.1496C10.2716 100.844 16.1167 100.693 18.72 101.185C28.08 102.097 58.5 102.375 58.5 102.375C58.5 102.375 83.0846 102.336 99.4549 101.146C101.746 100.869 106.728 100.849 111.179 96.1545C114.689 92.5762 115.83 84.4545 115.83 84.4545C115.83 84.4545 117 74.9239 117 65.3884V56.4476C117 46.9121 115.83 37.3766 115.83 37.3766Z" fill="#FF0000"/>
</svg>
